<svg xmlns="http://www.w3.org/2000/svg" viewBox="0 0 211.95 195.65"><defs><style>.a{fill:#f36d25;}</style></defs><title>ramen</title><path class="a" d="M776.27,942.46a4.15,4.15,0,0,1-3.51-1.92c-2.87-4.49-2.86-12.07,0-16.56l3.66-5.71a7.35,7.35,0,0,0,0-6.92L772.9,906a15.45,15.45,0,0,1-.14-15.83l3.71-5.87a7.29,7.29,0,0,0-.06-6.83l-3.49-5.31a15.49,15.49,0,0,1-.09-16l3.65-5.7a7.37,7.37,0,0,0,0-6.86,4.15,4.15,0,0,1,7-4.47,15.53,15.53,0,0,1,0,15.81l-3.65,5.7a7.35,7.35,0,0,0,0,6.92l3.49,5.31a15.45,15.45,0,0,1,.14,15.83l-3.71,5.87a7.29,7.29,0,0,0,.06,6.83l3.49,5.31a15.5,15.5,0,0,1,.1,16l-3.66,5.71c-1.11,1.74-1.12,5.86,0,7.61A4.16,4.16,0,0,1,776.27,942.46Z" transform="translate(-722.76 -813.56)"/><path class="a" d="M796.06,942.46a4.15,4.15,0,0,1-3.51-1.92c-2.87-4.49-2.86-12.07,0-16.56l3.66-5.71a7.35,7.35,0,0,0,0-6.92L792.69,906a15.45,15.45,0,0,1-.14-15.83l3.71-5.87a7.29,7.29,0,0,0-.06-6.83l-3.49-5.31a15.49,15.49,0,0,1-.09-16l3.65-5.7a7.37,7.37,0,0,0,0-6.86,4.15,4.15,0,0,1,7-4.47,15.54,15.54,0,0,1,0,15.81l-3.65,5.7a7.35,7.35,0,0,0,0,6.92l3.49,5.31a15.45,15.45,0,0,1,.14,15.83l-3.71,5.87a7.29,7.29,0,0,0,.06,6.83l3.49,5.31a15.5,15.5,0,0,1,.1,16l-3.66,5.71c-1.11,1.74-1.12,5.86,0,7.61A4.16,4.16,0,0,1,796.06,942.46Z" transform="translate(-722.76 -813.56)"/><path class="a" d="M817.75,942.46a4.15,4.15,0,0,1-3.51-1.92c-2.87-4.49-2.86-12.07,0-16.56l3.66-5.71a7.35,7.35,0,0,0,0-6.92L814.38,906a15.45,15.45,0,0,1-.14-15.83l3.71-5.87a7.29,7.29,0,0,0-.06-6.83l-3.49-5.31a15.49,15.49,0,0,1-.09-16l3.66-5.7a7.38,7.38,0,0,0,0-6.86,4.15,4.15,0,1,1,7-4.47A15.53,15.53,0,0,1,825,855l-3.66,5.7a7.35,7.35,0,0,0,0,6.92l3.49,5.31a15.45,15.45,0,0,1,.14,15.83l-3.71,5.87a7.29,7.29,0,0,0,.06,6.83l3.49,5.31a15.49,15.49,0,0,1,.09,16l-3.66,5.71c-1.11,1.74-1.12,5.86,0,7.61A4.16,4.16,0,0,1,817.75,942.46Z" transform="translate(-722.76 -813.56)"/><path class="a" d="M922.47,882.93a4.13,4.13,0,0,1-1.69-.36l-136.7-61.05a4.15,4.15,0,0,1,3.39-7.59L924.16,875A4.16,4.16,0,0,1,922.47,882.93Z" transform="translate(-722.76 -813.56)"/><path class="a" d="M780.84,844.59a4.15,4.15,0,0,1,0-8.31l149.71-1h0a4.15,4.15,0,0,1,0,8.31l-149.71,1h0Z" transform="translate(-722.76 -813.56)"/><path class="a" d="M788.28,1009.21a65.6,65.6,0,0,1-65.53-65.53v-4.15H853.81v4.15A65.6,65.6,0,0,1,788.28,1009.21Zm-57.07-61.37a57.22,57.22,0,0,0,114.13,0H731.21Z" transform="translate(-722.76 -813.56)"/><path class="a" d="M777.52,989.16c-13.08,0-25.53-11.27-31.78-28.81l7.83-2.79c5,14,14.59,23.29,24,23.29h0.16l0.1,8.31h-0.27Z" transform="translate(-722.76 -813.56)"/></svg>
